# xmcd CD database file
#
# Track frame offsets:
#	150
#	14410
#	26273
#	39977
#	58970
#	76514
#	88478
#	97825
#	107614
#	121690
#	146237
#
# Disc length: 2162 seconds
#
# Revision: 0
# Processed by: cddbd v1.5.2PL0 Copyright (c) Steve Scherf et al.
# Submitted via: CDex 1.79
#
DISCID=8108700b
DTITLE=Six Figures - Fast Cash
DYEAR=2016
DGENRE=Blues
TTITLE0=Six Figures - Fast Cash
TTITLE1=Six Figures - Get On Up
TTITLE2=Six Figures - Blazingly Blase
TTITLE3=Six Figures - Early Blues
TTITLE4=Six Figures - Bob Dylan's 115th Dream (Instrumental)
TTITLE5=Six Figures - For My Lover
TTITLE6=Six Figures - Wading Into the Waves
TTITLE7=Six Figures - Capucin Bicycle
TTITLE8=Six Figures - Wah's Whip
TTITLE9=Six Figures - When Yr High
TTITLE10=Six Figures - Brothers and Sisters
EXTD=YEAR: 2016
EXTT0=
EXTT1=
EXTT2=
EXTT3=
EXTT4=
EXTT5=
EXTT6=
EXTT7=
EXTT8=
EXTT9=
EXTT10=
PLAYORDER=
